<svg width="10" height="10" viewBox="0 0 10 10" fill="none" xmlns="http://www.w3.org/2000/svg">
<path d="M8.33335 5V9.16667H1.66669V5" stroke="#FF891D" stroke-width="0.7" stroke-linecap="round" stroke-linejoin="round"/>
<path d="M9.16665 2.91664H0.833313V4.99997H9.16665V2.91664Z" stroke="#FF891D" stroke-width="0.7" stroke-linecap="round" stroke-linejoin="round"/>
<path d="M5 9.16664V2.91664" stroke="#FF891D" stroke-width="0.7" stroke-linecap="round" stroke-linejoin="round"/>
<path d="M4.99998 2.91669H3.12498C2.84871 2.91669 2.58376 2.80694 2.38841 2.61159C2.19306 2.41624 2.08331 2.15129 2.08331 1.87502C2.08331 1.59875 2.19306 1.3338 2.38841 1.13845C2.58376 0.943102 2.84871 0.833355 3.12498 0.833355C4.58331 0.833355 4.99998 2.91669 4.99998 2.91669Z" stroke="#FF891D" stroke-width="0.7" stroke-linecap="round" stroke-linejoin="round"/>
<path d="M5 2.91669H6.875C7.15127 2.91669 7.41622 2.80694 7.61157 2.61159C7.80692 2.41624 7.91667 2.15129 7.91667 1.87502C7.91667 1.59875 7.80692 1.3338 7.61157 1.13845C7.41622 0.943102 7.15127 0.833355 6.875 0.833355C5.41667 0.833355 5 2.91669 5 2.91669Z" stroke="#FF891D" stroke-width="0.7" stroke-linecap="round" stroke-linejoin="round"/>
</svg>
