<svg width="17" height="22" viewBox="0 0 17 22" fill="none" xmlns="http://www.w3.org/2000/svg">
<path d="M16.4688 20.7643H2.65625C1.77756 20.7643 1.0625 20.0288 1.0625 19.125C1.0625 18.2212 1.77756 17.4857 2.65625 17.4857H13.2812C14.7454 17.4857 15.9375 16.2606 15.9375 14.7536V2.73214C15.9375 1.22509 14.7454 0 13.2812 0H2.65625C1.19212 0 0 1.22509 0 2.73214V19.125C0 20.632 1.19212 21.8571 2.65625 21.8571H16.4688C16.762 21.8571 17 21.6123 17 21.3107C17 21.0091 16.762 20.7643 16.4688 20.7643ZM5.84375 4.37143C7.30788 4.37143 8.5 5.59652 8.5 7.10357C8.5 7.65984 8.33638 8.17566 8.05694 8.60844L11.0001 11.6356C11.2072 11.8488 11.2072 12.1952 11.0001 12.4083C10.897 12.5143 10.761 12.5679 10.625 12.5679C10.489 12.5679 10.353 12.5143 10.2489 12.4083L7.30575 9.38109C6.88606 9.66741 6.38456 9.83571 5.84375 9.83571C4.37962 9.83571 3.1875 8.61062 3.1875 7.10357C3.1875 5.59652 4.37962 4.37143 5.84375 4.37143Z" fill="white"/>
</svg>
