<svg width="18" height="18" viewBox="0 0 18 18" fill="none" xmlns="http://www.w3.org/2000/svg">
<path d="M15.2218 2.92488H2.76857C1.74869 2.92488 0.916687 3.75689 0.916687 4.77677V6.01136H17.1006V4.77677C17.0737 3.75689 16.2417 2.92488 15.2218 2.92488ZM5.26459 5.01832C4.9962 5.25987 4.59362 5.23303 4.35207 4.96464C4.11052 4.69625 4.1642 4.29367 4.43259 4.05212C4.70098 3.81057 5.10356 3.8374 5.34511 4.10579C5.58666 4.37418 5.55982 4.77677 5.26459 5.01832ZM9.10256 5.15251C8.75366 5.15251 8.45843 4.85728 8.45843 4.50838C8.45843 4.15947 8.75366 3.86424 9.10256 3.86424C9.45147 3.86424 9.7467 4.15947 9.7467 4.50838C9.7467 4.88412 9.45147 5.15251 9.10256 5.15251ZM13.1284 5.15251C12.7795 5.15251 12.4843 4.85728 12.4843 4.50838C12.4843 4.15947 12.7795 3.86424 13.1284 3.86424C13.4773 3.86424 13.7725 4.15947 13.7725 4.50838C13.7725 4.88412 13.4773 5.15251 13.1284 5.15251Z" fill="white"/>
<path d="M0.916687 14.4919C0.916687 15.5118 1.74869 16.3438 2.76858 16.3438H15.2219C16.2417 16.3438 17.0737 15.5118 17.0737 14.4919V6.38657H0.916687V14.4919Z" fill="white"/>
<path d="M13.1289 4.80348C12.9679 4.80348 12.8605 4.69612 12.8605 4.53509V1.74384C12.8605 1.5828 12.9679 1.47545 13.1289 1.47545C13.29 1.47545 13.3973 1.5828 13.3973 1.74384V4.53509C13.3973 4.66928 13.2631 4.80348 13.1289 4.80348Z" fill="white"/>
<path d="M9.10311 4.80348C8.94207 4.80348 8.83472 4.69612 8.83472 4.53509V1.74384C8.83472 1.5828 8.94207 1.47545 9.10311 1.47545C9.26414 1.47545 9.3715 1.5828 9.3715 1.74384V4.53509C9.3715 4.66928 9.2373 4.80348 9.10311 4.80348Z" fill="white"/>
<path d="M4.86232 4.80348C4.70129 4.80348 4.59393 4.69612 4.59393 4.53509V1.74384C4.59393 1.5828 4.70129 1.47545 4.86232 1.47545C5.02336 1.47545 5.13071 1.5828 5.13071 1.74384V4.53509C5.13071 4.66928 4.99652 4.80348 4.86232 4.80348Z" fill="white"/>
<path d="M14.7761 15.3H3.22387C2.44476 15.3 1.79999 14.6729 1.79999 13.9152V7.2H16.2V13.9152C16.2 14.6729 15.5552 15.3 14.7761 15.3Z" fill="white"/>
</svg>
