<svg width="17" height="17" viewBox="0 0 17 17" fill="none" xmlns="http://www.w3.org/2000/svg">
<path fill-rule="evenodd" clip-rule="evenodd" d="M4.52682 8.83713C5.50034 9.93363 6.9201 10.625 8.50031 10.625C10.0805 10.625 11.5003 9.93363 12.4738 8.83713C13.1174 9.08628 13.7089 9.46825 14.2065 9.96577C15.1449 10.9042 15.6722 12.1768 15.6722 13.5042V14.3438C15.6722 14.7664 15.5043 15.1717 15.2055 15.4708C14.9064 15.7697 14.501 15.9375 14.0784 15.9375H2.92218C2.49957 15.9375 2.09423 15.7697 1.79513 15.4708C1.49631 15.1717 1.32843 14.7664 1.32843 14.3438V13.5042C1.32843 12.1768 1.8557 10.9042 2.79415 9.96577C3.29166 9.46825 3.88321 9.08628 4.52682 8.83713Z" fill="white"/>
<path fill-rule="evenodd" clip-rule="evenodd" d="M8.5 9.56211C6.15303 9.56211 4.25043 7.65951 4.25043 5.31253C4.25043 2.96556 6.15303 1.06296 8.5 1.06296C10.847 1.06296 12.7496 2.96556 12.7496 5.31253C12.7496 7.65951 10.847 9.5621 8.5 9.56211Z" fill="white"/>
</svg>
